<?xml version="1.0" encoding="utf-8"?>
<!-- Generator: Adobe Illustrator 24.3.0, SVG Export Plug-In . SVG Version: 6.00 Build 0)  -->
<svg version="1.1" id="Ebene_1" xmlns="http://www.w3.org/2000/svg" xmlns:xlink="http://www.w3.org/1999/xlink" x="0px" y="0px"
	 width="330.9px" height="60px" viewBox="0 0 330.9 60" style="enable-background:new 0 0 330.9 60;" xml:space="preserve">
<style type="text/css">
	.st0{fill:#FFED00;}
	.st1{clip-path:url(#SVGID_2_);}
	.st2{clip-path:url(#SVGID_4_);}
	.st3{clip-path:url(#SVGID_6_);}
</style>
<g>
	<rect x="291.5" y="8" class="st0" width="39.4" height="39.4"/>
	<g>
		<g>
			<g>
				<defs>
					<rect id="SVGID_1_" y="8" width="330.9" height="44"/>
				</defs>
				<clipPath id="SVGID_2_">
					<use xlink:href="#SVGID_1_"  style="overflow:visible;"/>
				</clipPath>
				<path class="st1" d="M275.8,21.1h-3.1v8.9h3.1v-4.6c0-1.2,0.3-2.1,1.6-2.1c1.6,0,1.4,1.5,1.4,2.3v4.4h3.1v-5.6
					c0-2.2-0.9-3.7-3.4-3.7c-1.3,0-2.1,0.3-2.9,1.4l0,0L275.8,21.1L275.8,21.1z M271.1,25.8c0-3-1.7-5-4.9-5c-2.9,0-5,1.7-5,4.8
					c0,3.1,2.2,4.8,5.2,4.8c1,0,2.1-0.2,2.9-0.7c0.8-0.5,1.4-1.3,1.7-2.3H268c-0.3,0.6-0.8,0.8-1.5,0.8c-1.3,0-2-0.7-2-2h6.6V25.8
					L271.1,25.8z M264.5,24.3c0.2-0.9,0.9-1.4,1.9-1.4c0.8,0,1.6,0.6,1.7,1.4H264.5z M260,21.4c-0.9-0.5-2-0.6-2.9-0.6
					c-2,0-3.9,0.9-3.9,3.1c0,1.6,1,2.1,2,2.3c1,0.2,2,0.3,2,1c0,0.5-0.6,0.7-1,0.7c-0.8,0-1.9-0.5-2.6-0.9l-1.2,2.2
					c1,0.7,2.3,1,3.6,1c2.1,0,4.2-0.9,4.2-3.4c0-1.6-1.2-2.3-2.6-2.7c-0.5-0.1-1.4-0.2-1.4-0.8c0-0.5,0.6-0.6,1-0.6
					c0.6,0,1.2,0.1,1.7,0.5L260,21.4z M249.4,15.9c-0.9,0-1.7,0.8-1.7,1.7c0,0.9,0.8,1.7,1.7,1.7c0.9,0,1.7-0.8,1.7-1.7
					C251.1,16.7,250.4,15.9,249.4,15.9 M251,21.1h-3.1v8.9h3.1V21.1z M246.3,25.8c0-3-1.7-5-4.9-5c-2.9,0-5,1.7-5,4.8
					c0,3.1,2.2,4.8,5.2,4.8c1,0,2.1-0.2,2.9-0.7c0.8-0.5,1.4-1.3,1.7-2.3h-3c-0.3,0.6-0.8,0.8-1.5,0.8c-1.3,0-2-0.7-2-2h6.6
					L246.3,25.8L246.3,25.8z M239.7,24.3c0.2-0.9,0.9-1.4,1.9-1.4c0.8,0,1.6,0.6,1.7,1.4H239.7z M233.6,23.7h2.2v-2.6h-2.2v-1.5
					c0-1,0.2-1.5,1-1.5c0.5,0,0.7,0.1,1.2,0.3v-2.7c-0.5-0.2-0.9-0.3-1.4-0.3c-1.2,0-2.3,0.5-3.1,1.4c-0.9,1-0.9,1.9-0.9,3.1v1.2
					h-1.2v2.6h1.2v6.4h3.1L233.6,23.7L233.6,23.7z M226.4,23.7h2.2v-2.6h-2.2v-1.5c0-1,0.2-1.5,1-1.5c0.5,0,0.7,0.1,1.2,0.3v-2.7
					c-0.5-0.2-0.9-0.3-1.4-0.3c-1.2,0-2.3,0.5-3.1,1.4c-0.8,1-0.9,1.9-0.9,3.1v1.2H222v2.6h1.2v6.4h3.1v-6.4H226.4z M219.2,15.9
					c-0.9,0-1.7,0.8-1.7,1.7c0,0.9,0.8,1.7,1.7,1.7c0.9,0,1.7-0.8,1.7-1.7C221,16.7,220.2,15.9,219.2,15.9 M220.7,21.1h-3.1v8.9h3.1
					V21.1z M215.4,21.1h-3.1v0.8c-0.7-0.8-1.7-1.2-2.8-1.2c-2.7,0-4.5,2.2-4.5,4.8s1.9,4.8,4.5,4.8c1,0,2.1-0.3,2.7-1.3l0,0v1h3.1
					v-8.9H215.4z M210.3,23.6c1.3,0,2.1,0.9,2.1,2c0,1.2-0.7,2-2.1,2c-1.3,0-2.1-0.9-2.1-2C208.3,24.5,209,23.6,210.3,23.6
					 M197.5,19.5h0.3c1.2,0,2.3,0.2,2.3,1.6s-1.3,1.6-2.3,1.6h-0.3V19.5z M200.9,24.7c1.9-0.3,2.9-1.9,2.9-3.7c0-2.8-2-4.1-4.5-4.1
					h-5.1v13.1h3.4v-5l0,0l3.2,5h4.3L200.9,24.7z"/>
			</g>
		</g>
		<g>
			<g>
				<defs>
					<rect id="SVGID_3_" y="8" width="330.9" height="44"/>
				</defs>
				<clipPath id="SVGID_4_">
					<use xlink:href="#SVGID_3_"  style="overflow:visible;"/>
				</clipPath>
				<path class="st2" d="M275.8,38.5h-3.1v8.9h3.1v-4.6c0-1.2,0.3-2.1,1.6-2.1c1.6,0,1.4,1.5,1.4,2.3v4.4h3.1v-5.6
					c0-2.2-0.9-3.7-3.4-3.7c-1.3,0-2.1,0.3-2.9,1.4l0,0v-1H275.8z M271.1,43.2c0-3-1.7-5-4.9-5c-2.9,0-5,1.7-5,4.8
					c0,3.1,2.2,4.8,5.2,4.8c1,0,2.1-0.2,2.9-0.7c0.8-0.5,1.4-1.3,1.7-2.3H268c-0.3,0.6-0.8,0.8-1.5,0.8c-1.3,0-2-0.7-2-2h6.6V43.2z
					 M264.5,41.8c0.2-0.9,0.9-1.4,1.9-1.4c0.8,0,1.6,0.6,1.7,1.4H264.5z M250.3,33.1v14.4h3.1v-4.5c0-1,0.3-2.1,1.6-2.1
					c1.3,0,1.4,1,1.4,2.1v4.5h3.1V42c0-2.2-1-3.7-3.4-3.7c-1.3,0-2.1,0.5-2.9,1.4l0,0v-6.6C253.3,33.1,250.3,33.1,250.3,33.1z
					 M248.2,38.8c-0.6-0.3-1.4-0.6-2.1-0.6c-2.8,0-5,2-5,4.9c0,2.7,2.2,4.6,4.9,4.6c0.8,0,1.5-0.1,2.2-0.5v-2.7
					c-0.5,0.3-1,0.6-1.6,0.6c-1.3,0-2.2-0.9-2.2-2.2c0-1.3,0.9-2.2,2.2-2.2c0.6,0,1.2,0.2,1.6,0.6L248.2,38.8L248.2,38.8z M237,38.5
					h-3.1v8.9h3.1v-3.6c0-1.5,0.5-2.7,2.2-2.7c0.5,0,0.9,0,1.4,0.3v-3H240c-1.3,0-2.3,0.5-2.9,1.6l0,0v-1.6H237z M230.1,33.3
					c-0.9,0-1.7,0.8-1.7,1.7c0,0.9,0.8,1.7,1.7,1.7c0.9,0,1.7-0.8,1.7-1.7C231.9,34.1,231.1,33.3,230.1,33.3 M231.7,38.5h-3.1v8.9
					h3.1V38.5z M219.6,33.1h-3.1v14.4h3.1v-3.6l3.5,3.6h4.4l-4.8-4.8l4.5-4.2H223l-3.2,3.2L219.6,33.1L219.6,33.1z M205,33.1v14.4
					h3.1v-4.5c0-1,0.3-2.1,1.6-2.1c1.3,0,1.4,1,1.4,2.1v4.5h3.1V42c0-2.2-1-3.7-3.4-3.7c-1.3,0-2.1,0.5-2.9,1.4l0,0v-6.6
					C208,33.1,205,33.1,205,33.1z M202.9,38.8c-0.6-0.3-1.4-0.6-2.1-0.6c-2.8,0-5,2-5,4.9c0,2.7,2.2,4.6,4.9,4.6
					c0.8,0,1.5-0.1,2.2-0.5v-2.7c-0.5,0.3-1,0.6-1.6,0.6c-1.3,0-2.2-0.9-2.2-2.2c0-1.3,0.9-2.2,2.2-2.2c0.6,0,1.2,0.2,1.6,0.6
					L202.9,38.8L202.9,38.8z M184.9,38.5V44c0,2.9,2.1,3.8,4.8,3.8c2.7,0,4.8-0.9,4.8-3.8v-5.3h-3.1v4.8c0,1.2-0.2,2-1.6,2
					c-1.3,0-1.6-0.8-1.6-2v-4.8C188,38.5,184.9,38.5,184.9,38.5z M177,37.1h0.6c1.3,0,2.4,0,2.4,1.6s-1.3,1.6-2.4,1.6H177V37.1z
					 M173.7,47.5h3.4V43h2c3,0,4.6-1.4,4.6-4.4c0-3-2-4.3-4.8-4.3h-5.2L173.7,47.5L173.7,47.5z M166.3,43.2h5v-2.6h-5V43.2z
					 M159.2,41c1.3,0,2.1,0.9,2.1,2c0,1.2-0.7,2-2.1,2c-1.3,0-2.1-0.9-2.1-2C157.2,41.9,157.9,41,159.2,41 M164.3,38.5h-3.1v0.9l0,0
					c-0.6-0.9-1.6-1.3-2.7-1.3c-2.8,0-4.5,2.2-4.5,4.9c0,2.6,1.7,4.5,4.4,4.5c1.2,0,2-0.3,2.8-1.2v0.5c0,1.4-0.3,2.6-2.1,2.6
					c-0.3,0-0.6-0.1-0.9-0.2c-0.3-0.1-0.5-0.3-0.6-0.7h-3.6c0.2,2.3,3,3.4,5.1,3.4c3.2,0,5.2-1.5,5.2-5.3L164.3,38.5L164.3,38.5z
					 M146.2,38.5H143v8.9h3.1v-4.6c0-1.2,0.3-2.1,1.6-2.1c1.6,0,1.4,1.5,1.4,2.3v4.4h3.1v-5.6c0-2.2-0.9-3.7-3.4-3.7
					c-1.3,0-2.1,0.3-2.9,1.4l0,0v-1H146.2z M139.2,33.3c-0.9,0-1.7,0.8-1.7,1.7c0,0.9,0.8,1.7,1.7,1.7c0.9,0,1.7-0.8,1.7-1.7
					C141.1,34.1,140.2,33.3,139.2,33.3 M140.8,38.5h-3.1v8.9h3.1V38.5z M132.2,44.9l4.2-6.3h-8.8v2.7h3.6l-4.2,6.3h9v-2.7H132.2z
					 M119.6,38.5h-3.1v8.9h3.1v-4.6c0-1.2,0.3-2.1,1.6-2.1c1.6,0,1.4,1.5,1.4,2.3v4.4h3.1v-5.6c0-2.2-0.9-3.7-3.4-3.7
					c-1.3,0-2.1,0.3-2.9,1.4l0,0C119.6,39.7,119.6,38.5,119.6,38.5z M114.8,43.2c0-3-1.7-5-4.9-5c-2.9,0-5,1.7-5,4.8
					c0,3.1,2.2,4.8,5.2,4.8c1,0,2.1-0.2,2.9-0.7s1.4-1.3,1.7-2.3h-3c-0.3,0.6-0.8,0.8-1.5,0.8c-1.3,0-2-0.7-2-2h6.5V43.2z
					 M108.2,41.8c0.2-0.9,0.9-1.4,1.9-1.4c0.8,0,1.6,0.6,1.7,1.4H108.2z M100.2,34.3h-3.4v13.1h7.5v-2.9h-4.1
					C100.2,44.6,100.2,34.3,100.2,34.3z M89.6,43.2h5v-2.6h-5V43.2z M75.5,38.5h-3.1v8.9h3.1v-4.3c0-1,0-2.6,1.4-2.6
					c1.4,0,1.4,1.5,1.4,2.6v4.3h3.1v-4.3c0-1,0-2.4,1.5-2.4c1.4,0,1.3,1.5,1.3,2.4v4.3h3.1v-5.7c0-2.1-0.8-3.5-3-3.5
					c-1.3,0-2.4,0.6-3,1.7c-0.7-1.2-1.7-1.7-3-1.7c-1.2,0-2.1,0.5-2.8,1.4l0,0C75.5,39.7,75.5,38.5,75.5,38.5z M70.2,38.5H67v0.8
					c-0.7-0.8-1.7-1.2-2.8-1.2c-2.7,0-4.5,2.2-4.5,4.8s1.9,4.8,4.5,4.8c1,0,2.1-0.3,2.7-1.3l0,0v1h3.1
					C70.2,47.5,70.2,38.5,70.2,38.5z M65.1,41c1.3,0,2.1,0.9,2.1,2c0,1.2-0.7,2-2.1,2c-1.3,0-2.1-0.9-2.1-2
					C63.1,41.9,63.8,41,65.1,41 M52.1,33.1H49v14.4h3.1v-3.6l3.5,3.6H60l-4.8-4.8l4.5-4.2h-4.3l-3.2,3.2v-8.7H52.1z M46.9,33.1h-3.1
					v14.4h3.1V33.1z M42.1,43.2c0-3-1.7-5-4.9-5c-2.9,0-5,1.7-5,4.8c0,3.1,2.2,4.8,5.2,4.8c1,0,2.1-0.2,2.9-0.7
					c0.8-0.5,1.4-1.3,1.7-2.3h-3c-0.3,0.6-0.8,0.8-1.5,0.8c-1.3,0-2-0.7-2-2h6.6v-0.3H42.1z M35.5,41.8c0.2-0.9,0.9-1.4,1.9-1.4
					c0.8,0,1.6,0.6,1.7,1.4H35.5z M18.7,38.5h-3.1v8.9h3.1v-4.3c0-1,0-2.6,1.4-2.6c1.4,0,1.4,1.5,1.4,2.6v4.3h3.1v-4.3
					c0-1,0-2.4,1.5-2.4c1.4,0,1.3,1.5,1.3,2.4v4.3h3.1v-5.7c0-2.1-0.8-3.5-3-3.5c-1.3,0-2.4,0.6-3,1.7c-0.7-1.2-1.7-1.7-3-1.7
					c-1.2,0-2.1,0.5-2.8,1.4l0,0C18.7,39.7,18.7,38.5,18.7,38.5z M11.8,33.3c-0.9,0-1.7,0.8-1.7,1.7c0,0.9,0.8,1.7,1.7,1.7
					s1.7-0.8,1.7-1.7C13.7,34.1,12.9,33.3,11.8,33.3 M13.5,38.5h-3.1v8.9h3.1C13.5,47.5,13.5,38.5,13.5,38.5z M6.3,37.2H9v-2.9H0
					v2.9h2.8v10.2h3.4V37.2H6.3z"/>
			</g>
		</g>
		<g>
			<g>
				<defs>
					<rect id="SVGID_5_" y="8" width="330.9" height="44"/>
				</defs>
				<clipPath id="SVGID_6_">
					<use xlink:href="#SVGID_5_"  style="overflow:visible;"/>
				</clipPath>
				<path class="st3" d="M311.2,32.4l-12.1,12.1l-4.8-4.8l12.1-12.1l-2.3-2.3v-4.8l-1.7-1.7v3.9l-1.6,1.6l-5.9-5.9l-1.6,1.6
					c0-1,0.2-4.5,3.1-7.3c3.1-3,6.3-1.3,7.4-0.2l5.7,5.7l-1.4,1.4l3.1,3.1l3.1-3.1l-1.4-1.4l5.7-5.7c1-1,4.3-2.9,7.4,0.2
					c2.8,2.8,3,6.3,3,7.3l-1.5-1.6l-5.9,5.9l-1.6-1.6v-3.9l-1.7,1.7v4.6l-2.3,2.3L328,39.6l-4.8,4.8L311.2,32.4z"/>
			</g>
		</g>
	</g>
</g>
</svg>
